<?xml version="1.0" encoding="UTF-8" standalone="no"?>
<!DOCTYPE svg PUBLIC "-//W3C//DTD SVG 1.1//EN" "http://www.w3.org/Graphics/SVG/1.1/DTD/svg11.dtd">
<svg xmlns="http://www.w3.org/2000/svg" version="1.1" viewBox="0.00 0.00 821.00 1282.00">
<g stroke-width="2.00" fill="none" stroke-linecap="butt">
<path stroke="#7ebe41" vector-effect="non-scaling-stroke" d="
  M 652.90 687.86
  Q 644.62 721.51 619.15 743.12
  Q 613.98 747.51 602.70 754.40
  Q 592.01 760.92 581.17 767.96"
/>
<path stroke="#67992b" vector-effect="non-scaling-stroke" d="
  M 581.17 767.96
  Q 563.50 767.45 545.14 772.61"
/>
<path stroke="#7ebe41" vector-effect="non-scaling-stroke" d="
  M 545.14 772.61
  Q 536.35 772.05 526.89 771.32
  C 525.18 771.18 524.03 771.57 522.43 772.04"
/>
<path stroke="#588f2a" vector-effect="non-scaling-stroke" d="
  M 545.14 772.61
  Q 568.91 779.04 593.00 780.54
  Q 628.85 782.77 664.12 776.46
  Q 737.81 763.27 781.68 703.76
  A 1.42 1.41 -61.6 0 0 781.04 701.59
  C 779.76 701.11 778.37 701.29 777.32 702.19
  Q 774.83 704.33 772.40 706.39
  C 747.21 727.73 717.24 743.43 686.50 752.96
  Q 636.13 768.57 581.17 767.96"
/>
<path stroke="#038fc0" vector-effect="non-scaling-stroke" d="
  M 264.55 345.81
  Q 265.01 348.45 264.95 351.24
  Q 264.74 360.53 255.49 360.23
  Q 240.76 359.74 226.36 361.62"
/>
<path stroke="#038fc0" vector-effect="non-scaling-stroke" d="
  M 226.17 409.94
  Q 226.38 410.04 226.57 410.13
  Q 226.75 410.21 226.95 410.22
  Q 242.51 410.36 259.12 410.05
  Q 264.04 409.96 264.03 415.38
  Q 264.00 428.06 264.12 439.53
  C 264.15 442.57 262.17 444.42 259.00 444.47
  Q 240.57 444.74 227.12 444.74
  Q 226.84 444.74 226.68 444.98
  Q 226.53 445.21 226.07 445.21"
/>
<path stroke="#038fc0" vector-effect="non-scaling-stroke" d="
  M 225.41 494.13
  L 259.59 493.98
  A 4.35 4.34 -0.6 0 1 263.96 498.25
  L 264.37 524.56
  A 3.55 3.55 0.0 0 1 260.95 528.17
  L 226.82 529.47"
/>
<path stroke="#038fc0" vector-effect="non-scaling-stroke" d="
  M 227.12 577.36
  L 259.91 577.85
  A 4.14 4.14 0.0 0 1 263.99 581.97
  Q 264.05 594.37 264.15 607.38
  Q 264.18 612.02 260.04 612.13
  Q 242.54 612.59 227.03 613.18"
/>
<path stroke="#038fc0" vector-effect="non-scaling-stroke" d="
  M 226.18 661.51
  L 261.71 662.00
  Q 263.99 662.04 263.99 664.32
  L 264.06 693.80
  A 2.23 2.23 0.0 0 1 261.88 696.04
  L 225.86 696.88"
/>
<path stroke="#469d6b" vector-effect="non-scaling-stroke" d="
  M 242.11 781.56
  A 0.47 0.47 0.0 0 1 241.81 780.77
  Q 244.39 778.07 248.63 777.84
  A 1.16 1.15 3.8 0 0 249.70 776.91
  L 249.87 776.04
  A 0.72 0.71 -84.2 0 0 249.18 775.19
  Q 227.66 775.09 210.75 784.88
  Q 208.64 786.10 210.88 787.04
  Q 213.15 787.99 216.01 788.20
  A 10.89 10.80 33.0 0 0 221.92 786.97
  C 224.37 785.67 226.47 784.11 229.19 783.30
  Q 237.85 780.73 245.61 786.87
  C 250.38 790.63 257.60 797.57 252.41 803.99
  C 248.47 808.86 245.44 816.73 251.13 821.64
  C 253.19 823.42 256.33 823.60 258.47 821.89
  C 263.08 818.21 267.55 814.44 273.02 811.97
  Q 277.98 809.72 289.99 805.09
  Q 295.90 802.81 300.62 799.30
  Q 304.22 796.62 309.29 791.15
  Q 314.59 785.44 321.11 779.98
  A 1.35 1.34 -55.7 0 0 320.68 777.67
  C 312.02 774.75 304.20 775.24 294.85 776.70
  Q 283.61 778.46 269.71 777.89
  Q 261.55 777.56 253.30 780.22
  C 249.80 781.35 245.78 781.86 242.11 781.56"
/>
<path stroke="#469d6b" vector-effect="non-scaling-stroke" d="
  M 218.74 808.58
  A 0.89 0.89 0.0 0 1 217.84 809.48
  C 214.87 809.46 210.35 810.37 208.93 813.28
  Q 207.93 815.33 209.72 817.05
  C 211.62 818.86 214.75 818.19 216.80 816.85
  Q 220.88 814.19 225.07 812.67
  Q 226.88 812.02 226.99 810.05
  Q 227.34 803.84 223.26 799.36
  C 221.26 797.17 218.64 797.15 216.06 796.52
  Q 209.63 794.95 206.20 788.11
  C 205.27 786.27 203.15 786.40 202.31 788.22
  C 200.77 791.55 198.68 794.45 194.55 794.31
  Q 192.75 794.25 191.01 794.28
  A 1.07 1.07 0.0 0 0 190.09 795.86
  C 193.26 801.70 200.46 800.03 205.82 801.34
  Q 210.41 802.46 215.33 804.32
  C 217.12 805.00 218.71 806.59 218.74 808.58"
/>
<path stroke="#469d6b" vector-effect="non-scaling-stroke" d="
  M 195.78 851.81
  Q 197.14 850.82 198.91 850.17
  Q 209.77 846.22 220.66 844.77
  C 224.16 844.30 225.21 841.11 223.40 838.31
  Q 220.21 833.37 219.56 827.42
  Q 219.27 824.82 216.60 825.07
  C 212.43 825.44 208.74 823.96 205.82 821.09
  C 201.38 816.73 197.34 819.86 194.06 823.26
  Q 185.09 832.59 179.40 842.82
  Q 178.87 843.79 177.84 844.31
  A 1.53 1.53 0.0 0 1 175.67 843.33
  C 173.73 835.87 168.61 834.26 162.60 831.25
  C 159.44 829.67 158.59 825.16 161.64 823.01
  Q 176.79 812.34 195.41 808.76
  C 198.71 808.12 199.41 804.45 197.97 801.76
  A 1.34 1.34 0.0 0 0 195.77 801.53
  C 193.76 803.93 190.93 805.47 188.01 803.79
  Q 184.08 801.53 185.82 795.26
  Q 186.89 791.40 182.93 792.02
  Q 182.48 792.08 182.06 792.22
  Q 178.93 793.18 178.19 796.38
  C 176.13 805.36 167.01 808.76 158.49 809.92
  Q 151.42 810.89 144.83 811.11
  C 141.04 811.24 138.09 812.83 135.62 815.86
  Q 103.21 855.50 92.11 904.33
  Q 89.38 916.33 89.94 920.94
  Q 91.15 930.79 101.83 934.85
  Q 113.93 939.45 124.92 944.62
  Q 128.86 946.48 131.59 949.28
  C 136.31 954.13 139.66 958.36 147.18 958.18
  C 151.88 958.07 154.46 961.92 152.18 966.18
  C 147.23 975.42 141.22 986.74 145.79 997.36
  Q 147.57 1001.51 150.76 1006.08
  Q 158.63 1017.36 167.39 1026.21
  C 171.45 1030.31 173.74 1034.11 173.59 1040.18
  Q 172.93 1066.91 179.45 1093.10
  C 182.90 1106.95 188.38 1115.63 201.26 1121.68
  Q 202.17 1122.10 202.94 1121.84
  Q 204.36 1121.35 203.63 1120.04
  C 197.79 1109.60 194.93 1093.88 201.95 1083.34
  Q 205.12 1078.60 208.22 1073.19
  C 209.88 1070.28 212.26 1069.23 214.73 1067.39
  C 219.94 1063.50 221.52 1058.67 223.47 1052.86
  Q 225.66 1046.33 231.79 1041.50
  C 233.99 1039.76 236.68 1038.74 238.73 1036.90
  C 242.91 1033.14 244.16 1024.94 245.51 1019.46
  C 247.04 1013.23 249.98 1006.81 252.82 1000.82
  C 255.35 995.48 252.92 990.84 247.47 989.16
  Q 232.99 984.70 220.31 980.78
  C 217.45 979.89 217.52 977.05 216.80 974.72
  C 215.23 969.59 211.55 967.50 206.35 964.19
  Q 193.78 956.18 183.26 953.02
  C 174.18 950.29 163.28 950.11 153.93 953.31
  C 148.95 955.01 143.42 955.15 140.36 950.19
  C 138.12 946.55 139.69 940.57 135.29 938.39
  C 132.65 937.08 126.61 936.85 128.88 931.96
  Q 130.55 928.37 128.61 924.70
  A 1.12 1.12 0.0 0 0 126.70 924.57
  C 125.02 926.93 123.58 929.75 120.76 930.82
  C 115.87 932.67 111.34 929.97 109.79 925.21
  Q 106.65 915.62 114.09 906.95
  Q 118.53 901.78 125.24 901.93
  C 127.78 901.99 129.81 903.32 132.25 901.72
  C 135.57 899.54 138.75 898.98 142.15 901.57
  Q 143.74 902.79 144.52 904.87
  Q 146.01 908.84 150.13 911.43
  A 1.18 1.18 0.0 0 0 151.93 910.36
  Q 151.73 907.06 151.13 903.86
  C 150.54 900.70 151.04 896.35 154.30 894.77
  C 159.14 892.41 162.90 889.05 166.00 884.54
  C 173.06 874.24 185.42 866.56 196.09 859.13
  A 1.70 1.70 0.0 0 1 198.44 859.54
  C 199.27 860.70 199.28 862.88 200.26 863.46
  C 203.28 865.25 208.48 860.06 205.71 856.95
  Q 204.27 855.33 202.44 854.82
  Q 199.60 854.03 196.13 853.36
  A 0.87 0.86 32.4 0 1 195.78 851.81"
/>
<path stroke="#469d6b" vector-effect="non-scaling-stroke" d="
  M 450.08 901.82
  Q 451.45 901.42 452.85 902.12
  Q 472.56 911.93 494.10 914.77
  C 498.53 915.35 502.00 919.98 506.50 919.56
  Q 508.80 919.35 508.38 916.94
  Q 505.41 899.92 498.50 880.16
  Q 484.09 838.94 455.64 808.13
  Q 452.14 804.34 447.61 804.27
  C 436.04 804.07 422.46 806.58 412.59 813.21
  C 408.85 815.73 405.24 812.08 406.83 808.37
  Q 407.07 807.83 407.62 808.05
  L 410.87 809.34
  Q 411.42 809.55 411.96 809.31
  Q 412.72 808.97 412.65 808.04
  A 1.01 0.98 -77.6 0 0 412.16 807.25
  Q 401.55 800.94 390.19 800.40
  C 380.74 799.95 373.02 803.43 366.43 810.27
  Q 361.75 815.14 355.57 819.18
  Q 353.56 820.49 352.81 822.23
  C 351.73 824.69 353.52 829.28 357.05 828.19
  Q 360.42 827.15 363.25 828.54
  C 365.35 829.57 366.22 831.81 368.64 832.35
  C 371.32 832.96 373.41 831.03 374.18 828.56
  Q 376.86 819.91 381.97 811.64
  Q 383.11 809.81 385.22 810.26
  A 1.47 1.47 0.0 0 1 386.28 812.25
  Q 384.68 816.19 385.03 820.09
  A 1.79 1.79 0.0 0 0 386.75 821.73
  Q 390.54 821.89 394.00 822.31
  C 396.94 822.65 397.75 825.78 396.19 828.02
  A 1.33 1.33 0.0 0 1 394.54 828.46
  C 391.12 826.89 388.03 826.39 385.62 829.94
  C 379.22 839.36 369.82 840.59 360.00 834.98
  A 1.56 1.55 -60.1 0 0 357.87 835.56
  C 356.28 838.37 353.86 840.53 350.87 841.70
  Q 348.11 842.78 346.46 845.17
  Q 342.68 850.64 335.45 851.84
  C 332.95 852.26 332.17 854.92 333.95 856.64
  Q 337.41 859.96 337.28 864.11
  A 1.98 1.98 0.0 0 1 335.29 866.03
  L 324.52 865.99
  A 4.24 4.23 2.9 0 0 320.29 869.80
  Q 319.87 873.99 319.73 878.24
  Q 319.62 881.43 322.69 881.90
  Q 330.82 883.13 337.87 879.01
  Q 339.33 878.16 340.12 876.75
  Q 345.73 866.67 357.82 864.19
  C 359.39 863.87 360.78 864.47 361.81 865.64
  Q 365.78 870.16 369.53 874.61
  Q 371.27 876.68 373.94 876.34
  Q 374.71 876.25 375.43 875.89
  Q 377.88 874.67 375.93 872.76
  C 373.32 870.19 370.27 868.14 367.06 866.28
  C 365.40 865.31 365.39 863.15 365.81 861.53
  Q 365.98 860.88 366.63 861.07
  Q 380.88 865.41 386.69 878.12
  Q 387.34 879.55 388.65 880.14
  A 1.81 1.80 -64.8 0 0 391.02 879.28
  L 392.96 875.25
  Q 394.05 872.99 396.42 872.17
  Q 398.03 871.61 399.77 871.62
  Q 402.00 871.64 400.92 873.59
  C 396.84 880.94 406.67 886.87 412.74 885.38
  Q 415.01 884.83 417.20 884.02
  A 2.55 2.55 0.0 0 1 420.59 885.93
  Q 421.27 889.44 420.72 893.27
  Q 420.16 897.17 416.03 897.33
  Q 402.54 897.84 390.20 894.26
  C 388.78 893.85 386.97 893.78 385.73 894.70
  C 375.80 902.08 366.52 894.02 362.09 885.09
  C 361.35 883.59 359.91 882.25 358.10 882.76
  Q 343.49 886.91 329.39 886.95
  C 325.31 886.97 321.75 888.14 319.60 891.69
  C 315.31 898.78 310.64 905.25 305.39 911.69
  C 299.14 919.37 297.85 928.79 298.18 938.78
  C 298.37 944.39 301.26 949.26 304.68 953.45
  Q 308.54 958.19 312.45 963.28
  C 314.31 965.71 317.11 967.59 320.26 967.16
  Q 330.05 965.81 340.80 963.59
  Q 344.12 962.91 345.74 963.00
  C 350.67 963.28 356.80 966.56 360.86 969.00
  Q 362.67 970.09 362.06 972.04
  Q 359.54 980.11 363.13 988.25
  C 366.69 996.31 370.72 1004.08 368.75 1012.98
  C 367.78 1017.37 366.20 1020.42 367.44 1025.13
  Q 372.26 1043.43 381.99 1065.15
  Q 383.16 1067.79 385.83 1068.63
  C 396.19 1071.91 403.41 1068.50 408.76 1059.30
  Q 416.31 1046.33 419.88 1034.98
  C 421.91 1028.53 424.61 1024.21 430.36 1020.46
  C 432.88 1018.82 435.60 1017.20 435.44 1013.69
  Q 435.10 1006.44 432.13 999.49
  Q 431.62 998.31 432.01 997.15
  Q 438.08 979.02 449.81 970.63
  Q 452.89 968.42 454.76 965.44
  C 456.58 962.54 461.51 950.20 453.94 950.75
  Q 449.25 951.10 444.39 951.71
  C 442.60 951.94 440.71 951.10 440.02 949.42
  Q 431.20 928.04 418.98 909.66
  C 417.02 906.71 416.61 903.70 418.14 900.45
  A 0.56 0.55 -68.2 0 1 418.81 900.16
  Q 419.46 900.38 419.72 901.07
  Q 422.85 909.34 428.64 915.60
  Q 435.64 923.17 438.92 929.88
  Q 440.86 933.88 442.71 937.79
  C 446.18 945.15 452.34 944.50 458.06 940.39
  Q 468.74 932.71 477.04 925.45
  C 478.01 924.61 478.64 923.51 478.22 922.18
  Q 476.43 916.53 470.56 914.68
  C 466.47 913.39 462.13 915.18 458.15 913.86
  C 453.54 912.33 450.66 907.90 449.23 903.44
  Q 448.83 902.20 450.08 901.82"
/>
<path stroke="#469d6b" vector-effect="non-scaling-stroke" d="
  M 316.6160 812.2180
  A 6.65 2.81 -5.8 0 0 309.7160 810.0944
  A 6.65 2.81 -5.8 0 0 303.3840 813.5620
  A 6.65 2.81 -5.8 0 0 310.2840 815.6856
  A 6.65 2.81 -5.8 0 0 316.6160 812.2180"
/>
<path stroke="#469d6b" vector-effect="non-scaling-stroke" d="
  M 329.25 837.66
  A 1.91 1.91 0.0 0 1 332.67 837.48
  C 334.54 840.79 334.03 843.87 333.68 847.48
  A 1.17 1.17 0.0 0 0 335.26 848.68
  Q 339.04 847.21 342.21 845.70
  Q 345.04 844.35 342.93 841.95
  Q 338.80 837.26 336.04 831.09
  A 1.39 1.39 0.0 0 0 333.89 830.58
  C 332.05 832.07 330.30 833.48 328.12 834.45
  C 324.42 836.09 320.94 838.54 321.45 843.09
  A 1.18 1.18 0.0 0 0 323.03 844.07
  C 326.12 842.95 327.96 840.61 329.25 837.66"
/>
<path stroke="#469d6b" vector-effect="non-scaling-stroke" d="
  M 226.58 851.90
  C 225.70 846.28 221.42 847.36 218.58 850.43
  Q 217.53 851.55 217.92 852.92
  A 1.40 1.39 89.2 0 0 218.90 853.88
  Q 222.64 854.86 225.44 853.83
  Q 226.81 853.33 226.58 851.90"
/>
<path stroke="#469d6b" vector-effect="non-scaling-stroke" d="
  M 442.8728 1045.5297
  A 16.84 5.59 111.3 0 0 454.1982 1031.8706
  A 16.84 5.59 111.3 0 0 455.1072 1014.1503
  A 16.84 5.59 111.3 0 0 443.7818 1027.8094
  A 16.84 5.59 111.3 0 0 442.8728 1045.5297"
/>
<path stroke="#67992b" vector-effect="non-scaling-stroke" d="
  M 534.26 754.79
  C 573.71 713.09 602.86 658.79 607.47 601.47
  Q 611.12 556.17 592.79 514.75
  Q 592.19 513.37 591.22 512.27
  A 1.00 1.00 0.0 0 0 589.48 512.78
  C 588.54 519.35 589.89 525.85 591.27 532.20
  Q 592.43 537.59 592.91 542.96
  C 595.66 574.15 592.92 605.57 584.28 635.41
  C 574.51 669.13 560.33 701.86 543.13 732.39
  Q 537.39 742.60 531.57 752.71
  Q 530.39 754.76 529.99 757.19
  A 0.49 0.49 0.0 0 0 530.74 757.68
  Q 532.70 756.43 534.26 754.79"
/>
</g>
<path fill="#05acec" d="
  M 48.96 826.59
  C 74.40 774.25 114.64 733.43 165.86 704.40
  Q 169.10 702.56 169.12 698.50
  Q 170.20 438.78 169.32 162.00
  Q 169.29 151.87 170.55 137.28
  Q 172.20 118.09 178.81 102.30
  C 203.11 44.20 263.44 12.73 325.36 24.73
  C 360.52 31.55 388.25 52.41 407.88 81.87
  C 419.31 99.02 425.84 118.55 427.74 138.77
  Q 428.59 147.81 428.60 159.16
  Q 428.76 425.17 428.81 699.53
  C 428.81 701.65 429.64 703.04 431.45 704.07
  C 461.07 720.95 487.70 741.98 509.45 766.86
  C 543.34 805.63 563.98 852.21 573.88 903.04
  C 575.52 911.48 576.69 919.70 576.94 928.40
  Q 577.63 952.27 576.05 976.05
  Q 575.13 989.75 572.89 1001.43
  Q 557.27 1082.92 500.17 1142.34
  C 458.50 1185.69 403.32 1213.77 343.99 1224.58
  Q 317.26 1229.46 291.62 1228.43
  C 225.72 1225.79 162.57 1202.07 113.51 1157.45
  C 72.83 1120.45 43.36 1075.01 29.73 1021.78
  Q 16.60 970.45 21.82 918.44
  C 24.96 887.09 34.99 855.35 48.96 826.59
  Z
  M 264.55 345.81
  Q 265.01 348.45 264.95 351.24
  Q 264.74 360.53 255.49 360.23
  Q 240.76 359.74 226.36 361.62
  Q 216.44 359.23 206.59 360.87
  C 204.09 361.28 202.03 362.32 202.02 365.03
  Q 201.99 385.27 201.97 405.45
  Q 201.96 409.28 205.79 409.38
  L 226.17 409.94
  Q 226.38 410.04 226.57 410.13
  Q 226.75 410.21 226.95 410.22
  Q 242.51 410.36 259.12 410.05
  Q 264.04 409.96 264.03 415.38
  Q 264.00 428.06 264.12 439.53
  C 264.15 442.57 262.17 444.42 259.00 444.47
  Q 240.57 444.74 227.12 444.74
  Q 226.84 444.74 226.68 444.98
  Q 226.53 445.21 226.07 445.21
  Q 225.91 445.01 225.72 444.88
  Q 225.61 444.81 225.49 444.80
  Q 216.05 444.42 207.87 444.45
  Q 202.05 444.47 202.03 449.50
  Q 201.96 469.98 201.74 489.48
  Q 201.69 493.90 206.11 493.95
  L 225.41 494.13
  L 259.59 493.98
  A 4.35 4.34 -0.6 0 1 263.96 498.25
  L 264.37 524.56
  A 3.55 3.55 0.0 0 1 260.95 528.17
  L 226.82 529.47
  Q 215.97 527.34 206.31 528.82
  C 203.84 529.20 201.56 530.39 201.72 533.25
  Q 202.79 552.39 201.16 572.99
  Q 200.96 575.44 202.47 576.10
  Q 212.93 580.71 227.12 577.36
  L 259.91 577.85
  A 4.14 4.14 0.0 0 1 263.99 581.97
  Q 264.05 594.37 264.15 607.38
  Q 264.18 612.02 260.04 612.13
  Q 242.54 612.59 227.03 613.18
  Q 214.58 609.97 204.26 613.08
  A 2.93 2.93 0.0 0 0 202.18 615.87
  Q 202.15 635.42 201.68 655.89
  C 201.61 659.14 202.94 662.21 206.77 662.11
  Q 215.60 661.89 225.00 662.03
  Q 225.80 662.04 226.18 661.51
  L 261.71 662.00
  Q 263.99 662.04 263.99 664.32
  L 264.06 693.80
  A 2.23 2.23 0.0 0 1 261.88 696.04
  L 225.86 696.88
  Q 218.68 695.43 211.49 695.68
  Q 205.98 695.88 204.56 696.80
  Q 202.07 698.44 202.05 701.64
  Q 202.01 711.41 202.00 721.56
  C 202.00 722.54 201.50 723.46 200.60 723.90
  C 153.10 746.96 111.92 780.59 85.87 826.66
  Q 63.66 865.96 56.19 909.65
  C 35.00 1033.70 114.35 1154.86 235.33 1187.42
  Q 259.63 1193.97 284.69 1195.14
  Q 363.58 1198.83 429.30 1157.87
  C 459.59 1138.99 485.68 1112.79 504.75 1083.20
  C 537.51 1032.38 552.31 969.69 541.25 909.53
  C 526.06 826.96 475.94 759.83 398.81 725.30
  C 397.52 724.73 396.18 723.78 396.10 722.24
  C 395.25 706.51 395.43 691.81 395.43 676.66
  Q 395.51 423.89 395.54 156.50
  C 395.54 108.44 368.86 70.32 322.17 57.66
  Q 293.73 49.95 264.86 60.93
  C 225.26 75.99 202.08 112.78 202.13 154.53
  Q 202.14 158.97 206.65 158.97
  Q 232.05 158.95 257.93 158.73
  Q 262.92 158.69 263.08 163.61
  Q 263.46 175.39 263.81 187.67
  C 263.91 191.11 261.55 193.07 258.38 193.04
  Q 231.36 192.76 205.71 192.77
  A 3.31 3.30 0.3 0 0 202.41 196.03
  L 201.87 238.51
  Q 201.82 242.69 206.00 242.69
  L 259.71 242.69
  A 3.81 3.81 0.0 0 1 263.52 246.52
  Q 263.46 258.64 263.28 272.42
  Q 263.22 277.15 257.74 277.08
  Q 233.04 276.76 209.21 276.32
  C 205.32 276.25 202.08 277.07 202.07 281.36
  Q 202.00 300.28 201.97 321.13
  Q 201.97 324.28 204.70 325.88
  C 206.25 326.80 208.44 326.57 210.26 326.59
  Q 235.36 326.84 258.92 326.60
  C 260.84 326.58 263.10 327.56 262.95 329.75
  Q 262.32 339.05 264.55 345.81
  Z"
/>
<path fill="#007293" d="
  M 264.55 345.81
  Q 265.21 345.62 265.80 346.26
  Q 266.17 346.66 266.72 346.66
  L 365.68 346.84
  A 4.09 4.09 0.0 0 1 369.76 350.93
  L 369.84 741.89
  A 2.77 2.76 -78.9 0 0 371.56 744.45
  C 402.12 756.97 429.47 773.53 452.41 796.61
  Q 480.26 824.64 497.02 863.10
  C 520.94 918.01 519.85 982.27 495.55 1036.63
  C 472.36 1088.50 429.83 1129.01 376.79 1149.63
  Q 340.75 1163.64 300.55 1164.01
  C 249.48 1164.47 200.79 1146.80 161.56 1114.85
  C 118.03 1079.39 91.30 1028.07 84.87 973.16
  C 72.99 871.66 131.59 781.25 226.07 744.55
  C 227.61 743.95 227.95 742.41 227.92 740.92
  Q 227.56 719.87 227.21 698.82
  Q 227.20 698.33 226.80 698.05
  Q 226.06 697.53 225.86 696.88
  L 261.88 696.04
  A 2.23 2.23 0.0 0 0 264.06 693.80
  L 263.99 664.32
  Q 263.99 662.04 261.71 662.00
  L 226.18 661.51
  L 226.73 660.94
  Q 227.08 660.58 227.08 660.07
  L 227.03 613.18
  Q 242.54 612.59 260.04 612.13
  Q 264.18 612.02 264.15 607.38
  Q 264.05 594.37 263.99 581.97
  A 4.14 4.14 0.0 0 0 259.91 577.85
  L 227.12 577.36
  Q 228.08 553.48 226.82 529.47
  L 260.95 528.17
  A 3.55 3.55 0.0 0 0 264.37 524.56
  L 263.96 498.25
  A 4.35 4.34 -0.6 0 0 259.59 493.98
  L 225.41 494.13
  L 226.32 493.01
  Q 226.67 492.58 226.68 492.02
  L 226.92 446.90
  A 1.67 1.60 -64.3 0 0 226.60 445.92
  L 226.07 445.21
  Q 226.53 445.21 226.68 444.98
  Q 226.84 444.74 227.12 444.74
  Q 240.57 444.74 259.00 444.47
  C 262.17 444.42 264.15 442.57 264.12 439.53
  Q 264.00 428.06 264.03 415.38
  Q 264.04 409.96 259.12 410.05
  Q 242.51 410.36 226.95 410.22
  Q 226.75 410.21 226.57 410.13
  Q 226.38 410.04 226.17 409.94
  L 226.97 409.15
  Q 227.33 408.80 227.33 408.30
  L 227.44 363.72
  Q 227.44 363.17 226.99 362.84
  Q 226.19 362.27 226.36 361.62
  Q 240.76 359.74 255.49 360.23
  Q 264.74 360.53 264.95 351.24
  Q 265.01 348.45 264.55 345.81
  Z
  M 242.11 781.56
  A 0.47 0.47 0.0 0 1 241.81 780.77
  Q 244.39 778.07 248.63 777.84
  A 1.16 1.15 3.8 0 0 249.70 776.91
  L 249.87 776.04
  A 0.72 0.71 -84.2 0 0 249.18 775.19
  Q 227.66 775.09 210.75 784.88
  Q 208.64 786.10 210.88 787.04
  Q 213.15 787.99 216.01 788.20
  A 10.89 10.80 33.0 0 0 221.92 786.97
  C 224.37 785.67 226.47 784.11 229.19 783.30
  Q 237.85 780.73 245.61 786.87
  C 250.38 790.63 257.60 797.57 252.41 803.99
  C 248.47 808.86 245.44 816.73 251.13 821.64
  C 253.19 823.42 256.33 823.60 258.47 821.89
  C 263.08 818.21 267.55 814.44 273.02 811.97
  Q 277.98 809.72 289.99 805.09
  Q 295.90 802.81 300.62 799.30
  Q 304.22 796.62 309.29 791.15
  Q 314.59 785.44 321.11 779.98
  A 1.35 1.34 -55.7 0 0 320.68 777.67
  C 312.02 774.75 304.20 775.24 294.85 776.70
  Q 283.61 778.46 269.71 777.89
  Q 261.55 777.56 253.30 780.22
  C 249.80 781.35 245.78 781.86 242.11 781.56
  Z
  M 218.74 808.58
  A 0.89 0.89 0.0 0 1 217.84 809.48
  C 214.87 809.46 210.35 810.37 208.93 813.28
  Q 207.93 815.33 209.72 817.05
  C 211.62 818.86 214.75 818.19 216.80 816.85
  Q 220.88 814.19 225.07 812.67
  Q 226.88 812.02 226.99 810.05
  Q 227.34 803.84 223.26 799.36
  C 221.26 797.17 218.64 797.15 216.06 796.52
  Q 209.63 794.95 206.20 788.11
  C 205.27 786.27 203.15 786.40 202.31 788.22
  C 200.77 791.55 198.68 794.45 194.55 794.31
  Q 192.75 794.25 191.01 794.28
  A 1.07 1.07 0.0 0 0 190.09 795.86
  C 193.26 801.70 200.46 800.03 205.82 801.34
  Q 210.41 802.46 215.33 804.32
  C 217.12 805.00 218.71 806.59 218.74 808.58
  Z
  M 195.78 851.81
  Q 197.14 850.82 198.91 850.17
  Q 209.77 846.22 220.66 844.77
  C 224.16 844.30 225.21 841.11 223.40 838.31
  Q 220.21 833.37 219.56 827.42
  Q 219.27 824.82 216.60 825.07
  C 212.43 825.44 208.74 823.96 205.82 821.09
  C 201.38 816.73 197.34 819.86 194.06 823.26
  Q 185.09 832.59 179.40 842.82
  Q 178.87 843.79 177.84 844.31
  A 1.53 1.53 0.0 0 1 175.67 843.33
  C 173.73 835.87 168.61 834.26 162.60 831.25
  C 159.44 829.67 158.59 825.16 161.64 823.01
  Q 176.79 812.34 195.41 808.76
  C 198.71 808.12 199.41 804.45 197.97 801.76
  A 1.34 1.34 0.0 0 0 195.77 801.53
  C 193.76 803.93 190.93 805.47 188.01 803.79
  Q 184.08 801.53 185.82 795.26
  Q 186.89 791.40 182.93 792.02
  Q 182.48 792.08 182.06 792.22
  Q 178.93 793.18 178.19 796.38
  C 176.13 805.36 167.01 808.76 158.49 809.92
  Q 151.42 810.89 144.83 811.11
  C 141.04 811.24 138.09 812.83 135.62 815.86
  Q 103.21 855.50 92.11 904.33
  Q 89.38 916.33 89.94 920.94
  Q 91.15 930.79 101.83 934.85
  Q 113.93 939.45 124.92 944.62
  Q 128.86 946.48 131.59 949.28
  C 136.31 954.13 139.66 958.36 147.18 958.18
  C 151.88 958.07 154.46 961.92 152.18 966.18
  C 147.23 975.42 141.22 986.74 145.79 997.36
  Q 147.57 1001.51 150.76 1006.08
  Q 158.63 1017.36 167.39 1026.21
  C 171.45 1030.31 173.74 1034.11 173.59 1040.18
  Q 172.93 1066.91 179.45 1093.10
  C 182.90 1106.95 188.38 1115.63 201.26 1121.68
  Q 202.17 1122.10 202.94 1121.84
  Q 204.36 1121.35 203.63 1120.04
  C 197.79 1109.60 194.93 1093.88 201.95 1083.34
  Q 205.12 1078.60 208.22 1073.19
  C 209.88 1070.28 212.26 1069.23 214.73 1067.39
  C 219.94 1063.50 221.52 1058.67 223.47 1052.86
  Q 225.66 1046.33 231.79 1041.50
  C 233.99 1039.76 236.68 1038.74 238.73 1036.90
  C 242.91 1033.14 244.16 1024.94 245.51 1019.46
  C 247.04 1013.23 249.98 1006.81 252.82 1000.82
  C 255.35 995.48 252.92 990.84 247.47 989.16
  Q 232.99 984.70 220.31 980.78
  C 217.45 979.89 217.52 977.05 216.80 974.72
  C 215.23 969.59 211.55 967.50 206.35 964.19
  Q 193.78 956.18 183.26 953.02
  C 174.18 950.29 163.28 950.11 153.93 953.31
  C 148.95 955.01 143.42 955.15 140.36 950.19
  C 138.12 946.55 139.69 940.57 135.29 938.39
  C 132.65 937.08 126.61 936.85 128.88 931.96
  Q 130.55 928.37 128.61 924.70
  A 1.12 1.12 0.0 0 0 126.70 924.57
  C 125.02 926.93 123.58 929.75 120.76 930.82
  C 115.87 932.67 111.34 929.97 109.79 925.21
  Q 106.65 915.62 114.09 906.95
  Q 118.53 901.78 125.24 901.93
  C 127.78 901.99 129.81 903.32 132.25 901.72
  C 135.57 899.54 138.75 898.98 142.15 901.57
  Q 143.74 902.79 144.52 904.87
  Q 146.01 908.84 150.13 911.43
  A 1.18 1.18 0.0 0 0 151.93 910.36
  Q 151.73 907.06 151.13 903.86
  C 150.54 900.70 151.04 896.35 154.30 894.77
  C 159.14 892.41 162.90 889.05 166.00 884.54
  C 173.06 874.24 185.42 866.56 196.09 859.13
  A 1.70 1.70 0.0 0 1 198.44 859.54
  C 199.27 860.70 199.28 862.88 200.26 863.46
  C 203.28 865.25 208.48 860.06 205.71 856.95
  Q 204.27 855.33 202.44 854.82
  Q 199.60 854.03 196.13 853.36
  A 0.87 0.86 32.4 0 1 195.78 851.81
  Z
  M 450.08 901.82
  Q 451.45 901.42 452.85 902.12
  Q 472.56 911.93 494.10 914.77
  C 498.53 915.35 502.00 919.98 506.50 919.56
  Q 508.80 919.35 508.38 916.94
  Q 505.41 899.92 498.50 880.16
  Q 484.09 838.94 455.64 808.13
  Q 452.14 804.34 447.61 804.27
  C 436.04 804.07 422.46 806.58 412.59 813.21
  C 408.85 815.73 405.24 812.08 406.83 808.37
  Q 407.07 807.83 407.62 808.05
  L 410.87 809.34
  Q 411.42 809.55 411.96 809.31
  Q 412.72 808.97 412.65 808.04
  A 1.01 0.98 -77.6 0 0 412.16 807.25
  Q 401.55 800.94 390.19 800.40
  C 380.74 799.95 373.02 803.43 366.43 810.27
  Q 361.75 815.14 355.57 819.18
  Q 353.56 820.49 352.81 822.23
  C 351.73 824.69 353.52 829.28 357.05 828.19
  Q 360.42 827.15 363.25 828.54
  C 365.35 829.57 366.22 831.81 368.64 832.35
  C 371.32 832.96 373.41 831.03 374.18 828.56
  Q 376.86 819.91 381.97 811.64
  Q 383.11 809.81 385.22 810.26
  A 1.47 1.47 0.0 0 1 386.28 812.25
  Q 384.68 816.19 385.03 820.09
  A 1.79 1.79 0.0 0 0 386.75 821.73
  Q 390.54 821.89 394.00 822.31
  C 396.94 822.65 397.75 825.78 396.19 828.02
  A 1.33 1.33 0.0 0 1 394.54 828.46
  C 391.12 826.89 388.03 826.39 385.62 829.94
  C 379.22 839.36 369.82 840.59 360.00 834.98
  A 1.56 1.55 -60.1 0 0 357.87 835.56
  C 356.28 838.37 353.86 840.53 350.87 841.70
  Q 348.11 842.78 346.46 845.17
  Q 342.68 850.64 335.45 851.84
  C 332.95 852.26 332.17 854.92 333.95 856.64
  Q 337.41 859.96 337.28 864.11
  A 1.98 1.98 0.0 0 1 335.29 866.03
  L 324.52 865.99
  A 4.24 4.23 2.9 0 0 320.29 869.80
  Q 319.87 873.99 319.73 878.24
  Q 319.62 881.43 322.69 881.90
  Q 330.82 883.13 337.87 879.01
  Q 339.33 878.16 340.12 876.75
  Q 345.73 866.67 357.82 864.19
  C 359.39 863.87 360.78 864.47 361.81 865.64
  Q 365.78 870.16 369.53 874.61
  Q 371.27 876.68 373.94 876.34
  Q 374.71 876.25 375.43 875.89
  Q 377.88 874.67 375.93 872.76
  C 373.32 870.19 370.27 868.14 367.06 866.28
  C 365.40 865.31 365.39 863.15 365.81 861.53
  Q 365.98 860.88 366.63 861.07
  Q 380.88 865.41 386.69 878.12
  Q 387.34 879.55 388.65 880.14
  A 1.81 1.80 -64.8 0 0 391.02 879.28
  L 392.96 875.25
  Q 394.05 872.99 396.42 872.17
  Q 398.03 871.61 399.77 871.62
  Q 402.00 871.64 400.92 873.59
  C 396.84 880.94 406.67 886.87 412.74 885.38
  Q 415.01 884.83 417.20 884.02
  A 2.55 2.55 0.0 0 1 420.59 885.93
  Q 421.27 889.44 420.72 893.27
  Q 420.16 897.17 416.03 897.33
  Q 402.54 897.84 390.20 894.26
  C 388.78 893.85 386.97 893.78 385.73 894.70
  C 375.80 902.08 366.52 894.02 362.09 885.09
  C 361.35 883.59 359.91 882.25 358.10 882.76
  Q 343.49 886.91 329.39 886.95
  C 325.31 886.97 321.75 888.14 319.60 891.69
  C 315.31 898.78 310.64 905.25 305.39 911.69
  C 299.14 919.37 297.85 928.79 298.18 938.78
  C 298.37 944.39 301.26 949.26 304.68 953.45
  Q 308.54 958.19 312.45 963.28
  C 314.31 965.71 317.11 967.59 320.26 967.16
  Q 330.05 965.81 340.80 963.59
  Q 344.12 962.91 345.74 963.00
  C 350.67 963.28 356.80 966.56 360.86 969.00
  Q 362.67 970.09 362.06 972.04
  Q 359.54 980.11 363.13 988.25
  C 366.69 996.31 370.72 1004.08 368.75 1012.98
  C 367.78 1017.37 366.20 1020.42 367.44 1025.13
  Q 372.26 1043.43 381.99 1065.15
  Q 383.16 1067.79 385.83 1068.63
  C 396.19 1071.91 403.41 1068.50 408.76 1059.30
  Q 416.31 1046.33 419.88 1034.98
  C 421.91 1028.53 424.61 1024.21 430.36 1020.46
  C 432.88 1018.82 435.60 1017.20 435.44 1013.69
  Q 435.10 1006.44 432.13 999.49
  Q 431.62 998.31 432.01 997.15
  Q 438.08 979.02 449.81 970.63
  Q 452.89 968.42 454.76 965.44
  C 456.58 962.54 461.51 950.20 453.94 950.75
  Q 449.25 951.10 444.39 951.71
  C 442.60 951.94 440.71 951.10 440.02 949.42
  Q 431.20 928.04 418.98 909.66
  C 417.02 906.71 416.61 903.70 418.14 900.45
  A 0.56 0.55 -68.2 0 1 418.81 900.16
  Q 419.46 900.38 419.72 901.07
  Q 422.85 909.34 428.64 915.60
  Q 435.64 923.17 438.92 929.88
  Q 440.86 933.88 442.71 937.79
  C 446.18 945.15 452.34 944.50 458.06 940.39
  Q 468.74 932.71 477.04 925.45
  C 478.01 924.61 478.64 923.51 478.22 922.18
  Q 476.43 916.53 470.56 914.68
  C 466.47 913.39 462.13 915.18 458.15 913.86
  C 453.54 912.33 450.66 907.90 449.23 903.44
  Q 448.83 902.20 450.08 901.82
  Z
  M 316.6160 812.2180
  A 6.65 2.81 -5.8 0 0 309.7160 810.0944
  A 6.65 2.81 -5.8 0 0 303.3840 813.5620
  A 6.65 2.81 -5.8 0 0 310.2840 815.6856
  A 6.65 2.81 -5.8 0 0 316.6160 812.2180
  Z
  M 329.25 837.66
  A 1.91 1.91 0.0 0 1 332.67 837.48
  C 334.54 840.79 334.03 843.87 333.68 847.48
  A 1.17 1.17 0.0 0 0 335.26 848.68
  Q 339.04 847.21 342.21 845.70
  Q 345.04 844.35 342.93 841.95
  Q 338.80 837.26 336.04 831.09
  A 1.39 1.39 0.0 0 0 333.89 830.58
  C 332.05 832.07 330.30 833.48 328.12 834.45
  C 324.42 836.09 320.94 838.54 321.45 843.09
  A 1.18 1.18 0.0 0 0 323.03 844.07
  C 326.12 842.95 327.96 840.61 329.25 837.66
  Z
  M 226.58 851.90
  C 225.70 846.28 221.42 847.36 218.58 850.43
  Q 217.53 851.55 217.92 852.92
  A 1.40 1.39 89.2 0 0 218.90 853.88
  Q 222.64 854.86 225.44 853.83
  Q 226.81 853.33 226.58 851.90
  Z
  M 442.8728 1045.5297
  A 16.84 5.59 111.3 0 0 454.1982 1031.8706
  A 16.84 5.59 111.3 0 0 455.1072 1014.1503
  A 16.84 5.59 111.3 0 0 443.7818 1027.8094
  A 16.84 5.59 111.3 0 0 442.8728 1045.5297
  Z"
/>
<path fill="#8cc742" d="
  M 652.90 687.86
  Q 644.62 721.51 619.15 743.12
  Q 613.98 747.51 602.70 754.40
  Q 592.01 760.92 581.17 767.96
  Q 563.50 767.45 545.14 772.61
  Q 536.35 772.05 526.89 771.32
  C 525.18 771.18 524.03 771.57 522.43 772.04
  Q 521.72 771.77 521.93 770.23
  Q 522.00 769.67 521.69 769.21
  Q 504.72 744.31 495.11 714.58
  Q 491.66 703.90 490.18 694.57
  Q 483.96 655.45 509.65 625.60
  Q 518.15 615.72 531.28 602.07
  C 545.66 587.12 557.98 569.63 567.15 551.02
  Q 580.34 524.23 574.95 491.18
  C 574.53 488.63 577.15 486.93 579.36 488.30
  Q 583.07 490.61 585.89 494.21
  C 614.12 530.22 636.54 571.46 648.26 615.35
  Q 654.20 637.58 655.67 659.85
  C 656.30 669.27 654.31 678.70 652.90 687.86
  Z
  M 534.26 754.79
  C 573.71 713.09 602.86 658.79 607.47 601.47
  Q 611.12 556.17 592.79 514.75
  Q 592.19 513.37 591.22 512.27
  A 1.00 1.00 0.0 0 0 589.48 512.78
  C 588.54 519.35 589.89 525.85 591.27 532.20
  Q 592.43 537.59 592.91 542.96
  C 595.66 574.15 592.92 605.57 584.28 635.41
  C 574.51 669.13 560.33 701.86 543.13 732.39
  Q 537.39 742.60 531.57 752.71
  Q 530.39 754.76 529.99 757.19
  A 0.49 0.49 0.0 0 0 530.74 757.68
  Q 532.70 756.43 534.26 754.79
  Z"
/>
<path fill="#416a14" d="
  M 607.47 601.47
  C 602.86 658.79 573.71 713.09 534.26 754.79
  Q 532.70 756.43 530.74 757.68
  A 0.49 0.49 0.0 0 1 529.99 757.19
  Q 530.39 754.76 531.57 752.71
  Q 537.39 742.60 543.13 732.39
  C 560.33 701.86 574.51 669.13 584.28 635.41
  C 592.92 605.57 595.66 574.15 592.91 542.96
  Q 592.43 537.59 591.27 532.20
  C 589.89 525.85 588.54 519.35 589.48 512.78
  A 1.00 1.00 0.0 0 1 591.22 512.27
  Q 592.19 513.37 592.79 514.75
  Q 611.12 556.17 607.47 601.47
  Z"
/>
<path fill="#6fb440" d="
  M 522.43 772.04
  C 524.03 771.57 525.18 771.18 526.89 771.32
  Q 536.35 772.05 545.14 772.61
  Q 568.91 779.04 593.00 780.54
  Q 628.85 782.77 664.12 776.46
  Q 737.81 763.27 781.68 703.76
  A 1.42 1.41 -61.6 0 0 781.04 701.59
  C 779.76 701.11 778.37 701.29 777.32 702.19
  Q 774.83 704.33 772.40 706.39
  C 747.21 727.73 717.24 743.43 686.50 752.96
  Q 636.13 768.57 581.17 767.96
  Q 592.01 760.92 602.70 754.40
  Q 613.98 747.51 619.15 743.12
  Q 644.62 721.51 652.90 687.86
  Q 653.47 688.44 653.75 689.14
  Q 653.96 689.67 654.51 689.83
  Q 691.81 700.97 727.28 701.28
  Q 762.62 701.59 791.93 678.53
  C 793.47 677.32 795.82 677.53 796.16 679.71
  Q 796.94 684.66 795.06 689.18
  Q 775.25 736.82 744.59 775.50
  Q 726.25 798.63 706.92 815.63
  Q 695.53 825.64 681.29 833.67
  C 674.11 837.72 666.26 841.12 658.19 843.00
  C 636.78 847.98 614.71 848.52 594.14 840.22
  C 562.31 827.36 539.09 803.43 523.84 772.87
  A 1.13 1.10 -3.1 0 0 523.21 772.32
  L 522.43 772.04
  Z"
/>
<path fill="#416a14" d="
  M 545.14 772.61
  Q 563.50 767.45 581.17 767.96
  Q 636.13 768.57 686.50 752.96
  C 717.24 743.43 747.21 727.73 772.40 706.39
  Q 774.83 704.33 777.32 702.19
  C 778.37 701.29 779.76 701.11 781.04 701.59
  A 1.42 1.41 -61.6 0 1 781.68 703.76
  Q 737.81 763.27 664.12 776.46
  Q 628.85 782.77 593.00 780.54
  Q 568.91 779.04 545.14 772.61
  Z"
/>
<path fill="#8cc742" d="
  M 242.11 781.56
  C 245.78 781.86 249.80 781.35 253.30 780.22
  Q 261.55 777.56 269.71 777.89
  Q 283.61 778.46 294.85 776.70
  C 304.20 775.24 312.02 774.75 320.68 777.67
  A 1.35 1.34 -55.7 0 1 321.11 779.98
  Q 314.59 785.44 309.29 791.15
  Q 304.22 796.62 300.62 799.30
  Q 295.90 802.81 289.99 805.09
  Q 277.98 809.72 273.02 811.97
  C 267.55 814.44 263.08 818.21 258.47 821.89
  C 256.33 823.60 253.19 823.42 251.13 821.64
  C 245.44 816.73 248.47 808.86 252.41 803.99
  C 257.60 797.57 250.38 790.63 245.61 786.87
  Q 237.85 780.73 229.19 783.30
  C 226.47 784.11 224.37 785.67 221.92 786.97
  A 10.89 10.80 33.0 0 1 216.01 788.20
  Q 213.15 787.99 210.88 787.04
  Q 208.64 786.10 210.75 784.88
  Q 227.66 775.09 249.18 775.19
  A 0.72 0.71 -84.2 0 1 249.87 776.04
  L 249.70 776.91
  A 1.16 1.15 3.8 0 1 248.63 777.84
  Q 244.39 778.07 241.81 780.77
  A 0.47 0.47 0.0 0 0 242.11 781.56
  Z"
/>
<path fill="#8cc742" d="
  M 218.74 808.58
  C 218.71 806.59 217.12 805.00 215.33 804.32
  Q 210.41 802.46 205.82 801.34
  C 200.46 800.03 193.26 801.70 190.09 795.86
  A 1.07 1.07 0.0 0 1 191.01 794.28
  Q 192.75 794.25 194.55 794.31
  C 198.68 794.45 200.77 791.55 202.31 788.22
  C 203.15 786.40 205.27 786.27 206.20 788.11
  Q 209.63 794.95 216.06 796.52
  C 218.64 797.15 221.26 797.17 223.26 799.36
  Q 227.34 803.84 226.99 810.05
  Q 226.88 812.02 225.07 812.67
  Q 220.88 814.19 216.80 816.85
  C 214.75 818.19 211.62 818.86 209.72 817.05
  Q 207.93 815.33 208.93 813.28
  C 210.35 810.37 214.87 809.46 217.84 809.48
  A 0.89 0.89 0.0 0 0 218.74 808.58
  Z"
/>
<path fill="#8cc742" d="
  M 195.78 851.81
  A 0.87 0.86 32.4 0 0 196.13 853.36
  Q 199.60 854.03 202.44 854.82
  Q 204.27 855.33 205.71 856.95
  C 208.48 860.06 203.28 865.25 200.26 863.46
  C 199.28 862.88 199.27 860.70 198.44 859.54
  A 1.70 1.70 0.0 0 0 196.09 859.13
  C 185.42 866.56 173.06 874.24 166.00 884.54
  C 162.90 889.05 159.14 892.41 154.30 894.77
  C 151.04 896.35 150.54 900.70 151.13 903.86
  Q 151.73 907.06 151.93 910.36
  A 1.18 1.18 0.0 0 1 150.13 911.43
  Q 146.01 908.84 144.52 904.87
  Q 143.74 902.79 142.15 901.57
  C 138.75 898.98 135.57 899.54 132.25 901.72
  C 129.81 903.32 127.78 901.99 125.24 901.93
  Q 118.53 901.78 114.09 906.95
  Q 106.65 915.62 109.79 925.21
  C 111.34 929.97 115.87 932.67 120.76 930.82
  C 123.58 929.75 125.02 926.93 126.70 924.57
  A 1.12 1.12 0.0 0 1 128.61 924.70
  Q 130.55 928.37 128.88 931.96
  C 126.61 936.85 132.65 937.08 135.29 938.39
  C 139.69 940.57 138.12 946.55 140.36 950.19
  C 143.42 955.15 148.95 955.01 153.93 953.31
  C 163.28 950.11 174.18 950.29 183.26 953.02
  Q 193.78 956.18 206.35 964.19
  C 211.55 967.50 215.23 969.59 216.80 974.72
  C 217.52 977.05 217.45 979.89 220.31 980.78
  Q 232.99 984.70 247.47 989.16
  C 252.92 990.84 255.35 995.48 252.82 1000.82
  C 249.98 1006.81 247.04 1013.23 245.51 1019.46
  C 244.16 1024.94 242.91 1033.14 238.73 1036.90
  C 236.68 1038.74 233.99 1039.76 231.79 1041.50
  Q 225.66 1046.33 223.47 1052.86
  C 221.52 1058.67 219.94 1063.50 214.73 1067.39
  C 212.26 1069.23 209.88 1070.28 208.22 1073.19
  Q 205.12 1078.60 201.95 1083.34
  C 194.93 1093.88 197.79 1109.60 203.63 1120.04
  Q 204.36 1121.35 202.94 1121.84
  Q 202.17 1122.10 201.26 1121.68
  C 188.38 1115.63 182.90 1106.95 179.45 1093.10
  Q 172.93 1066.91 173.59 1040.18
  C 173.74 1034.11 171.45 1030.31 167.39 1026.21
  Q 158.63 1017.36 150.76 1006.08
  Q 147.57 1001.51 145.79 997.36
  C 141.22 986.74 147.23 975.42 152.18 966.18
  C 154.46 961.92 151.88 958.07 147.18 958.18
  C 139.66 958.36 136.31 954.13 131.59 949.28
  Q 128.86 946.48 124.92 944.62
  Q 113.93 939.45 101.83 934.85
  Q 91.15 930.79 89.94 920.94
  Q 89.38 916.33 92.11 904.33
  Q 103.21 855.50 135.62 815.86
  C 138.09 812.83 141.04 811.24 144.83 811.11
  Q 151.42 810.89 158.49 809.92
  C 167.01 808.76 176.13 805.36 178.19 796.38
  Q 178.93 793.18 182.06 792.22
  Q 182.48 792.08 182.93 792.02
  Q 186.89 791.40 185.82 795.26
  Q 184.08 801.53 188.01 803.79
  C 190.93 805.47 193.76 803.93 195.77 801.53
  A 1.34 1.34 0.0 0 1 197.97 801.76
  C 199.41 804.45 198.71 808.12 195.41 808.76
  Q 176.79 812.34 161.64 823.01
  C 158.59 825.16 159.44 829.67 162.60 831.25
  C 168.61 834.26 173.73 835.87 175.67 843.33
  A 1.53 1.53 0.0 0 0 177.84 844.31
  Q 178.87 843.79 179.40 842.82
  Q 185.09 832.59 194.06 823.26
  C 197.34 819.86 201.38 816.73 205.82 821.09
  C 208.74 823.96 212.43 825.44 216.60 825.07
  Q 219.27 824.82 219.56 827.42
  Q 220.21 833.37 223.40 838.31
  C 225.21 841.11 224.16 844.30 220.66 844.77
  Q 209.77 846.22 198.91 850.17
  Q 197.14 850.82 195.78 851.81
  Z"
/>
<path fill="#8cc742" d="
  M 450.08 901.82
  Q 448.83 902.20 449.23 903.44
  C 450.66 907.90 453.54 912.33 458.15 913.86
  C 462.13 915.18 466.47 913.39 470.56 914.68
  Q 476.43 916.53 478.22 922.18
  C 478.64 923.51 478.01 924.61 477.04 925.45
  Q 468.74 932.71 458.06 940.39
  C 452.34 944.50 446.18 945.15 442.71 937.79
  Q 440.86 933.88 438.92 929.88
  Q 435.64 923.17 428.64 915.60
  Q 422.85 909.34 419.72 901.07
  Q 419.46 900.38 418.81 900.16
  A 0.56 0.55 -68.2 0 0 418.14 900.45
  C 416.61 903.70 417.02 906.71 418.98 909.66
  Q 431.20 928.04 440.02 949.42
  C 440.71 951.10 442.60 951.94 444.39 951.71
  Q 449.25 951.10 453.94 950.75
  C 461.51 950.20 456.58 962.54 454.76 965.44
  Q 452.89 968.42 449.81 970.63
  Q 438.08 979.02 432.01 997.15
  Q 431.62 998.31 432.13 999.49
  Q 435.10 1006.44 435.44 1013.69
  C 435.60 1017.20 432.88 1018.82 430.36 1020.46
  C 424.61 1024.21 421.91 1028.53 419.88 1034.98
  Q 416.31 1046.33 408.76 1059.30
  C 403.41 1068.50 396.19 1071.91 385.83 1068.63
  Q 383.16 1067.79 381.99 1065.15
  Q 372.26 1043.43 367.44 1025.13
  C 366.20 1020.42 367.78 1017.37 368.75 1012.98
  C 370.72 1004.08 366.69 996.31 363.13 988.25
  Q 359.54 980.11 362.06 972.04
  Q 362.67 970.09 360.86 969.00
  C 356.80 966.56 350.67 963.28 345.74 963.00
  Q 344.12 962.91 340.80 963.59
  Q 330.05 965.81 320.26 967.16
  C 317.11 967.59 314.31 965.71 312.45 963.28
  Q 308.54 958.19 304.68 953.45
  C 301.26 949.26 298.37 944.39 298.18 938.78
  C 297.85 928.79 299.14 919.37 305.39 911.69
  C 310.64 905.25 315.31 898.78 319.60 891.69
  C 321.75 888.14 325.31 886.97 329.39 886.95
  Q 343.49 886.91 358.10 882.76
  C 359.91 882.25 361.35 883.59 362.09 885.09
  C 366.52 894.02 375.80 902.08 385.73 894.70
  C 386.97 893.78 388.78 893.85 390.20 894.26
  Q 402.54 897.84 416.03 897.33
  Q 420.16 897.17 420.72 893.27
  Q 421.27 889.44 420.59 885.93
  A 2.55 2.55 0.0 0 0 417.20 884.02
  Q 415.01 884.83 412.74 885.38
  C 406.67 886.87 396.84 880.94 400.92 873.59
  Q 402.00 871.64 399.77 871.62
  Q 398.03 871.61 396.42 872.17
  Q 394.05 872.99 392.96 875.25
  L 391.02 879.28
  A 1.81 1.80 -64.8 0 1 388.65 880.14
  Q 387.34 879.55 386.69 878.12
  Q 380.88 865.41 366.63 861.07
  Q 365.98 860.88 365.81 861.53
  C 365.39 863.15 365.40 865.31 367.06 866.28
  C 370.27 868.14 373.32 870.19 375.93 872.76
  Q 377.88 874.67 375.43 875.89
  Q 374.71 876.25 373.94 876.34
  Q 371.27 876.68 369.53 874.61
  Q 365.78 870.16 361.81 865.64
  C 360.78 864.47 359.39 863.87 357.82 864.19
  Q 345.73 866.67 340.12 876.75
  Q 339.33 878.16 337.87 879.01
  Q 330.82 883.13 322.69 881.90
  Q 319.62 881.43 319.73 878.24
  Q 319.87 873.99 320.29 869.80
  A 4.24 4.23 2.9 0 1 324.52 865.99
  L 335.29 866.03
  A 1.98 1.98 0.0 0 0 337.28 864.11
  Q 337.41 859.96 333.95 856.64
  C 332.17 854.92 332.95 852.26 335.45 851.84
  Q 342.68 850.64 346.46 845.17
  Q 348.11 842.78 350.87 841.70
  C 353.86 840.53 356.28 838.37 357.87 835.56
  A 1.56 1.55 -60.1 0 1 360.00 834.98
  C 369.82 840.59 379.22 839.36 385.62 829.94
  C 388.03 826.39 391.12 826.89 394.54 828.46
  A 1.33 1.33 0.0 0 0 396.19 828.02
  C 397.75 825.78 396.94 822.65 394.00 822.31
  Q 390.54 821.89 386.75 821.73
  A 1.79 1.79 0.0 0 1 385.03 820.09
  Q 384.68 816.19 386.28 812.25
  A 1.47 1.47 0.0 0 0 385.22 810.26
  Q 383.11 809.81 381.97 811.64
  Q 376.86 819.91 374.18 828.56
  C 373.41 831.03 371.32 832.96 368.64 832.35
  C 366.22 831.81 365.35 829.57 363.25 828.54
  Q 360.42 827.15 357.05 828.19
  C 353.52 829.28 351.73 824.69 352.81 822.23
  Q 353.56 820.49 355.57 819.18
  Q 361.75 815.14 366.43 810.27
  C 373.02 803.43 380.74 799.95 390.19 800.40
  Q 401.55 800.94 412.16 807.25
  A 1.01 0.98 -77.6 0 1 412.65 808.04
  Q 412.72 808.97 411.96 809.31
  Q 411.42 809.55 410.87 809.34
  L 407.62 808.05
  Q 407.07 807.83 406.83 808.37
  C 405.24 812.08 408.85 815.73 412.59 813.21
  C 422.46 806.58 436.04 804.07 447.61 804.27
  Q 452.14 804.34 455.64 808.13
  Q 484.09 838.94 498.50 880.16
  Q 505.41 899.92 508.38 916.94
  Q 508.80 919.35 506.50 919.56
  C 502.00 919.98 498.53 915.35 494.10 914.77
  Q 472.56 911.93 452.85 902.12
  Q 451.45 901.42 450.08 901.82
  Z"
/>
<ellipse fill="#8cc742" cx="0.00" cy="0.00" transform="translate(310.00,812.89) rotate(-5.8)" rx="6.65" ry="2.81"/>
<path fill="#8cc742" d="
  M 329.25 837.66
  C 327.96 840.61 326.12 842.95 323.03 844.07
  A 1.18 1.18 0.0 0 1 321.45 843.09
  C 320.94 838.54 324.42 836.09 328.12 834.45
  C 330.30 833.48 332.05 832.07 333.89 830.58
  A 1.39 1.39 0.0 0 1 336.04 831.09
  Q 338.80 837.26 342.93 841.95
  Q 345.04 844.35 342.21 845.70
  Q 339.04 847.21 335.26 848.68
  A 1.17 1.17 0.0 0 1 333.68 847.48
  C 334.03 843.87 334.54 840.79 332.67 837.48
  A 1.91 1.91 0.0 0 0 329.25 837.66
  Z"
/>
<path fill="#8cc742" d="
  M 226.58 851.90
  Q 226.81 853.33 225.44 853.83
  Q 222.64 854.86 218.90 853.88
  A 1.40 1.39 89.2 0 1 217.92 852.92
  Q 217.53 851.55 218.58 850.43
  C 221.42 847.36 225.70 846.28 226.58 851.90
  Z"
/>
<ellipse fill="#8cc742" cx="0.00" cy="0.00" transform="translate(448.99,1029.84) rotate(111.3)" rx="16.84" ry="5.59"/>
</svg>
